<svg width="300" height="300" viewBox="0 0 300 300" fill="none" xmlns="http://www.w3.org/2000/svg">
  <circle cx="150" cy="150" r="140" fill="#EDE9FE" />

  <!-- Expert figure -->
  <circle cx="120" cy="100" r="30" fill="#A78BFA" />
  <path d="M100 140 L120 170 L140 140 Z" fill="#A78BFA" />
  <rect x="110" y="130" width="20" height="40" rx="10" fill="#A78BFA" />

  <!-- Patient figure -->
  <circle cx="200" cy="120" r="25" fill="white" stroke="#A78BFA" stroke-width="2" />
  <path d="M185 150 L200 175 L215 150 Z" fill="white" stroke="#A78BFA" stroke-width="2" />
  <rect x="190" y="145" width="20" height="35" rx="10" fill="white" stroke="#A78BFA" stroke-width="2" />

  <!-- Virtual connection -->
  <path d="M150 110 C 180 90, 170 140, 175 120" stroke="#7C3AED" stroke-width="2" stroke-dasharray="5 3" />

  <!-- Devices -->
  <rect x="90" y="190" width="60" height="40" rx="5" fill="#C4B5FD" />
  <rect x="95" y="195" width="50" height="30" rx="3" fill="#EDE9FE" />

  <rect x="180" y="190" width="40" height="60" rx="5" fill="#C4B5FD" />
  <rect x="185" y="195" width="30" height="45" rx="3" fill="#EDE9FE" />
  <circle cx="200" cy="250" r="5" fill="#7C3AED" />

  <!-- Connection lines -->
  <path d="M120 170 L120 190" stroke="#7C3AED" stroke-width="2" />
  <path d="M200 175 L200 190" stroke="#7C3AED" stroke-width="2" />

  <!-- Guidance symbols -->
  <circle cx="150" cy="90" r="10" fill="#7C3AED" />
  <path d="M150 85 L150 95 M145 90 L155 90" stroke="white" stroke-width="2" />

  <circle cx="180" cy="80" r="8" fill="#7C3AED" />
  <path d="M176 80 L184 80 M180 76 L180 84" stroke="white" stroke-width="2" />

  <circle cx="120" cy="70" r="8" fill="#7C3AED" />
  <path d="M116 70 L124 70 M120 66 L120 74" stroke="white" stroke-width="2" />
</svg>
